HIERARCHY
ROOT Hips
{
    OFFSET 0.000000 0.000000 0.000000
    CHANNELS 6 Xposition Yposition Zposition Zrotation Xrotation Yrotation
    JOINT Spine
    {
        OFFSET -0.000000 0.079523 0.000000
        CHANNELS 3 Zrotation Xrotation Yrotation
        JOINT Spine1
        {
            OFFSET -0.000000 0.192445 0.000000
            CHANNELS 3 Zrotation Xrotation Yrotation
            JOINT Neck
            {
                OFFSET -0.000000 0.191655 0.017423
                CHANNELS 3 Zrotation Xrotation Yrotation
                JOINT Head
                {
                    OFFSET -0.000000 0.135771 -0.019396
                    CHANNELS 3 Zrotation Xrotation Yrotation
                    End Site
                    {
                        OFFSET -0.000000 0.242449 0.000000
                    }
                }
            }
            JOINT LeftShoulder
            {
                OFFSET 0.039141 0.175231 -0.001157
                CHANNELS 3 Zrotation Xrotation Yrotation
                JOINT LeftArm
                {
                    OFFSET 0.104248 0.000000 0.000000
                    CHANNELS 3 Zrotation Xrotation Yrotation
                    JOINT LeftForeArm
                    {
                        OFFSET 0.307569 0.000000 0.000000
                        CHANNELS 3 Zrotation Xrotation Yrotation
                        JOINT LeftHand
                        {
                            OFFSET 0.230447 0.000000 0.000000
                            CHANNELS 3 Zrotation Xrotation Yrotation
                            End Site
                            {
                                OFFSET 0.145469 0.000000 0.000000
                            }
                        }
                    }
                }
            }
            JOINT RightShoulder
            {
                OFFSET -0.038425 0.175231 -0.001157
                CHANNELS 3 Zrotation Xrotation Yrotation
                JOINT RightArm
                {
                    OFFSET -0.104248 0.000000 0.000000
                    CHANNELS 3 Zrotation Xrotation Yrotation
                    JOINT RightForeArm
                    {
                        OFFSET -0.307569 0.000000 0.000000
                        CHANNELS 3 Zrotation Xrotation Yrotation
                        JOINT RightHand
                        {
                            OFFSET -0.230447 0.000000 0.000000
                            CHANNELS 3 Zrotation Xrotation Yrotation
                            End Site
                            {
                                OFFSET -0.145469 0.000000 0.000000
                            }
                        }
                    }
                }
            }
        }
    }
    JOINT LeftUpLeg
    {
        OFFSET 0.096979 0.000000 0.000000
        CHANNELS 3 Zrotation Xrotation Yrotation
        JOINT LeftLeg
        {
            OFFSET -0.000000 -0.427459 0.000000
            CHANNELS 3 Zrotation Xrotation Yrotation
            JOINT LeftFoot
            {
                OFFSET -0.000000 -0.447558 0.000000
                CHANNELS 3 Zrotation Xrotation Yrotation
                JOINT LeftToeBase
                {
                    OFFSET -0.000000 -0.063037 0.145469
                    CHANNELS 3 Zrotation Xrotation Yrotation
                    End Site
                    {
                        OFFSET -0.000000 0.000000 0.038792
                    }
                }
            }
        }
    }
    JOINT RightUpLeg
    {
        OFFSET -0.096979 0.000000 0.000000
        CHANNELS 3 Zrotation Xrotation Yrotation
        JOINT RightLeg
        {
            OFFSET -0.000000 -0.427459 0.000000
            CHANNELS 3 Zrotation Xrotation Yrotation
            JOINT RightFoot
            {
                OFFSET -0.000000 -0.447558 0.000000
                CHANNELS 3 Zrotation Xrotation Yrotation
                JOINT RightToeBase
                {
                    OFFSET -0.000000 -0.063037 0.145469
                    CHANNELS 3 Zrotation Xrotation Yrotation
                    End Site
                    {
                        OFFSET -0.000000 0.000000 0.038792
                    }
                }
            }
        }
    }
}
MOTION
Frames:    14
Frame Time:    0.008333
-0.321087    0.907566    0.736819    5.498006    1.040195    -117.034081    0.088488    -10.364809    0.009287    6.158396    6.685546    -1.636463    -2.233092    10.597583    -0.113989    10.346324    -0.531582    3.246373    2.808722    10.680613    13.154672    -73.882927    19.306618    -15.059562    9.578286    -8.870469    -85.579163    -0.530143    7.575529    21.807730    5.292894    13.417361    -9.071466    72.256668    9.687199    -7.666966    0.163781    0.024738    17.263432    -11.387815    -2.855629    -11.827119    0.458092    4.444558    10.509361    -1.875815    20.613096    -5.004718    -4.068303    -12.028137    -5.125718    0.000000    0.000000    0.000000    4.940681    -16.023512    17.794031    7.750188    8.582092    -0.194061    -0.641252    -2.184235    -29.166256    0.000000    0.000000    0.000000    
-0.326174    0.908566    0.734869    5.282177    0.894638    -117.629486    0.255838    -10.091016    0.023953    6.086063    6.518354    -1.638375    -2.229051    10.630116    -0.113149    10.396340    0.099810    3.576612    2.690529    10.791435    13.326011    -74.085533    19.220594    -14.585596    9.246356    -8.573613    -85.650688    -0.498487    8.078923    21.827066    5.237220    13.349142    -8.787850    72.380241    9.862896    -7.609251    -0.330430    -0.049710    17.065598    -11.190101    -3.144007    -12.025467    0.411041    4.374449    10.681829    -2.181117    21.701189    -3.918049    -5.041994    -11.244901    -5.884100    0.000000    0.000000    0.000000    4.865748    -15.676030    17.130152    7.587328    8.914609    0.151088    -0.686859    -2.360311    -28.267994    0.000000    0.000000    0.000000    
-0.330397    0.909351    0.733755    5.294628    0.495268    -118.376411    0.357509    -9.972379    0.032557    6.002218    6.231469    -1.458048    -2.239231    10.708205    -0.112123    10.356190    0.648769    3.881463    2.542109    10.923531    13.449610    -74.239586    19.521320    -14.181497    9.415640    -8.705748    -85.486443    -0.543359    8.136374    21.850218    5.118256    13.268922    -8.555971    72.473869    9.993299    -7.490321    -0.674862    -0.101143    17.025242    -11.345098    -3.492301    -12.262774    0.234909    3.750698    11.248887    -2.383518    23.056009    -3.011754    -6.332796    -10.131749    -6.843314    0.000000    0.000000    0.000000    4.687892    -15.738340    16.798573    7.478529    9.324781    0.628569    -0.726336    -2.718107    -27.714319    0.000000    0.000000    0.000000    
-0.335019    0.910149    0.731913    5.219502    0.270198    -118.814522    0.389686    -9.917843    0.035263    6.098539    6.168550    -1.563944    -3.524285    10.567643    -0.180531    12.170647    1.706163    3.431894    2.386927    11.022144    13.527458    -74.369987    19.562191    -13.797122    9.144525    -8.437793    -85.370270    -0.504429    8.557856    21.834089    4.985907    13.208165    -8.355723    72.640015    10.328051    -7.395722    -1.376788    -0.208241    17.191786    -11.028835    -4.816319    -11.962995    0.306519    3.223236    11.497964    -2.652713    24.540939    -2.227724    -6.770117    -9.459532    -7.771967    0.000000    0.000000    0.000000    4.573918    -15.494099    16.486324    7.305116    9.457098    1.150442    -0.778543    -2.940082    -27.465141    0.000000    0.000000    0.000000    
-0.339385    0.910756    0.730115    5.182467    0.034088    -119.163368    0.399310    -9.918537    0.036077    6.216177    6.147364    -1.695293    -3.183580    10.731973    -0.158502    11.546894    2.043548    3.535403    2.264087    11.138132    13.579792    -74.471283    19.636709    -13.505321    8.836358    -8.126984    -85.185394    -0.533698    8.960813    21.871561    4.813827    13.146892    -8.181152    72.856102    10.681705    -7.310056    -1.909773    -0.304390    18.104576    -11.244453    -5.187862    -14.111173    0.421609    2.524142    11.678696    -2.918946    26.230467    -1.519779    -7.725468    -8.627240    -8.585730    0.000000    0.000000    0.000000    4.423261    -15.253179    16.227455    7.164297    9.495455    1.967255    -0.926615    -3.179691    -27.630041    0.000000    0.000000    0.000000    
-0.343624    0.911295    0.728372    5.178220    -0.208754    -119.398033    0.456149    -9.965626    0.041158    6.228467    6.138036    -1.801928    -3.089438    10.772134    -0.152712    11.380534    2.573975    3.282653    2.218061    11.272643    13.552749    -74.494232    19.719873    -13.301643    8.384522    -7.679128    -84.944489    -0.244805    9.460040    21.775303    4.752158    13.070033    -8.112108    73.054955    11.080536    -7.282093    -2.518404    -0.416747    18.786091    -10.956228    -5.698189    -14.440032    0.568871    1.670346    11.726937    -3.189082    28.097519    -1.172449    -8.508606    -7.853384    -8.958672    0.000000    0.000000    0.000000    4.228257    -15.031997    16.074327    7.069068    9.396967    2.745841    -1.093379    -3.255947    -27.937130    0.000000    0.000000    0.000000    
-0.347676    0.911617    0.726627    5.177032    -0.429326    -119.550659    0.511988    -10.045959    0.046410    6.253273    6.244960    -1.866657    -3.088527    10.698665    -0.154672    11.393781    3.040659    3.108985    2.206735    11.323055    13.456766    -74.489319    20.051191    -13.148143    8.193433    -7.440283    -84.456741    -0.545006    9.924498    21.506762    4.679036    12.953118    -8.163345    73.287781    11.529144    -7.228057    -3.164615    -0.548094    19.644558    -10.873303    -6.600064    -14.725347    0.755354    0.692163    11.965081    -3.271863    30.206072    -2.057170    -8.870073    -7.239957    -8.492648    0.000000    0.000000    0.000000    4.034482    -14.763056    15.774482    6.962239    9.277493    3.396705    -1.277329    -3.519173    -28.100599    0.000000    0.000000    0.000000    
-0.351600    0.911872    0.724920    5.195174    -0.619067    -119.618515    0.604404    -10.186296    0.055315    6.250535    6.419714    -1.948336    -3.086000    10.758520    -0.152915    11.455212    3.407712    2.802641    2.241692    11.410732    13.321764    -74.439850    20.308002    -13.215941    7.726112    -6.962620    -84.022614    0.393093    10.005407    21.578583    4.659821    12.854340    -8.154721    73.516487    11.940581    -7.228809    -3.861737    -0.705705    20.702961    -10.511369    -7.254024    -15.112123    1.143710    -0.138266    12.221841    -3.600893    31.959408    -1.134895    -9.991813    -6.140339    -10.002316    0.000000    0.000000    0.000000    3.840287    -14.496684    15.472797    6.922370    9.190292    3.672992    -1.486921    -3.921696    -28.023672    0.000000    0.000000    0.000000    
-0.355355    0.911952    0.723322    5.248065    -0.787260    -119.614197    0.753908    -10.339757    0.069732    6.209251    6.600655    -2.027982    -3.068074    10.823413    -0.150284    11.518597    3.751082    2.409112    2.301391    11.467978    13.190816    -74.327309    20.482943    -13.181790    7.086828    -6.342270    -83.626915    0.371833    10.699712    21.575441    4.636884    12.739734    -8.197120    73.704956    12.351582    -7.200793    -4.460003    -0.860796    21.835649    -10.294963    -8.044656    -15.377831    1.410030    -1.225222    12.524507    -3.597049    34.100708    -2.048739    -10.578407    -5.729540    -9.403140    0.000000    0.000000    0.000000    3.636773    -14.322084    15.260439    6.967403    9.106434    3.860136    -1.732673    -4.160980    -27.993084    0.000000    0.000000    0.000000    
-0.359978    0.912318    0.721208    4.951802    -0.890996    -119.856133    0.790076    -10.376400    0.073400    6.164900    7.063852    -1.824797    -3.087678    10.823089    -0.151243    11.679078    4.092482    2.056973    2.377566    11.467382    13.037523    -74.308502    20.851879    -13.225128    6.846486    -6.059451    -82.993622    0.025905    11.104018    21.537334    4.652348    12.683696    -8.282454    73.842560    12.801826    -7.103055    -4.734166    -0.963207    22.986601    -11.467013    -9.096443    -15.585167    1.460172    -1.597413    13.040452    -3.895349    35.727520    -1.312812    -10.470190    -5.103682    -9.578369    0.000000    0.000000    0.000000    3.382611    -13.757506    15.284977    6.997186    9.014584    3.953163    -1.965800    -4.384602    -27.879921    0.000000    0.000000    0.000000    
-0.363891    0.912443    0.719455    4.850861    -0.976295    -119.907814    0.944573    -10.386905    0.087095    6.097564    7.275627    -1.758568    -2.001932    9.659920    -0.118770    9.958398    6.322248    1.977058    2.439217    11.531379    12.859296    -74.287712    21.149651    -13.284498    6.540107    -5.707954    -82.198235    -0.624904    11.948051    21.198996    4.713258    13.212723    -8.773531    73.739594    13.249504    -6.134585    -5.007808    -1.068706    24.077230    -11.435180    -9.532328    -15.671905    1.693462    -2.527449    13.522061    -3.497432    37.900829    -1.878089    -11.326118    -4.295097    -9.842174    0.000000    0.000000    0.000000    3.184126    -13.366908    15.345795    7.067598    8.847275    3.989827    -2.205780    -4.609577    -27.924335    0.000000    0.000000    0.000000    
-0.367694    0.912523    0.717608    4.753188    -0.973256    -119.958839    1.151034    -10.385451    0.106094    6.046137    7.551033    -1.732453    -2.033037    9.830104    -0.117571    10.109609    6.416354    1.729724    2.499434    11.531746    12.751420    -74.315186    21.487703    -13.359180    6.336857    -5.466158    -81.533318    -1.152895    12.291507    21.459898    4.752379    13.163253    -8.712153    73.739258    13.525692    -6.072011    -5.319990    -1.206275    25.532148    -11.510588    -9.905735    -15.904346    1.932657    -3.500097    13.981153    -3.045343    40.124012    -3.394953    -9.617953    -4.796752    -8.924562    0.000000    0.000000    0.000000    3.090288    -12.956521    15.532644    7.127202    8.723508    4.043150    -2.417250    -4.833986    -28.101917    0.000000    0.000000    0.000000    
-0.371294    0.912606    0.715871    4.673521    -0.995332    -120.028931    1.324628    -10.332520    0.121609    6.032590    7.771035    -1.695662    -2.345526    10.524302    -0.121198    10.692997    5.748699    1.092000    2.507640    11.482588    12.699358    -74.347885    21.919538    -13.364737    6.134298    -5.208161    -80.634148    -0.293865    13.632377    20.816572    4.751915    13.134641    -8.765603    73.801270    14.215331    -5.925482    -5.877575    -1.409797    26.953489    -11.475579    -10.417414    -16.069904    2.308903    -4.439359    14.203034    -2.608646    42.121071    -3.838651    -11.680130    -3.339196    -9.638944    0.000000    0.000000    0.000000    3.011374    -12.646524    15.807383    7.188320    8.699318    3.981259    -2.599447    -5.077934    -28.254755    0.000000    0.000000    0.000000    
-0.374966    0.912771    0.714062    4.539704    -0.974275    -120.140137    1.458490    -10.206800    0.132230    6.087776    7.934295    -1.631003    -2.346405    10.568195    -0.120333    10.729771    6.165700    0.723940    2.478150    11.514864    12.647711    -74.409744    22.074001    -13.346741    5.702309    -4.777977    -79.890991    -0.816954    14.591368    21.191751    4.711743    13.168455    -8.715507    73.780609    14.301334    -5.945513    -6.183046    -1.594832    28.900684    -11.397156    -10.368995    -16.359329    2.622954    -5.336251    14.287131    -2.267522    44.071415    -3.567382    -11.585780    -2.963984    -10.628051    0.000000    0.000000    0.000000    2.965918    -12.275886    16.185789    7.235914    8.705688    3.976682    -2.759218    -5.313922    -28.515171    0.000000    0.000000    0.000000    
